<?xml version="1.0" encoding="utf-8"?>
<!-- Generator: Adobe Illustrator 18.0.0, SVG Export Plug-In . SVG Version: 6.00 Build 0)  -->
<!DOCTYPE svg PUBLIC "-//W3C//DTD SVG 1.1//EN" "http://www.w3.org/Graphics/SVG/1.1/DTD/svg11.dtd">
<svg version="1.1" id="Layer_1" xmlns="http://www.w3.org/2000/svg" xmlns:xlink="http://www.w3.org/1999/xlink" x="0px" y="0px"
	 width="841.9px" height="595.3px" viewBox="0 0 841.9 595.3" enable-background="new 0 0 841.9 595.3" xml:space="preserve">
<g>
	<rect fill="#FFFFFF" width="841.9" height="595.3"/>
	<g>
		<g>
			<g>
				<path fill="#51586A" d="M51.6,246c-1.3,0-2.6-0.5-3.5-1.5c-1.5-1.5-1.9-3.8-1-5.7l17-35.6c-6.8-11.1-10.3-23.9-10.3-37
					c0-39.4,32-71.4,71.4-71.4c39.4,0,71.4,32,71.4,71.4s-32,71.4-71.4,71.4c-12.5,0-24.6-3.2-35.4-9.4l-36,17.2
					C53.1,245.8,52.3,246,51.6,246z M125.2,104.9c-33.9,0-61.4,27.6-61.4,61.4c0,12.1,3.5,23.8,10.2,33.9c1,1.5,1.1,3.3,0.3,4.9
					l-12.1,25.3l25.7-12.2c1.5-0.7,3.4-0.6,4.8,0.3c9.7,6.1,21,9.3,32.5,9.3c33.9,0,61.4-27.6,61.4-61.4S159,104.9,125.2,104.9z"/>
			</g>
			<g>
				<path fill="#EF4136" d="M146.1,151.9L146.1,151.9c-5.7-5.7-15-5.7-20.7,0l0,0v0c-5.7-5.7-15-5.7-20.7,0l0,0
					c-5.7,5.7-5.7,15,0,20.7l20.7,20.7l20.7-20.7C151.8,166.9,151.8,157.6,146.1,151.9z"/>
			</g>
		</g>
		<g>
			<g>
				<path fill="#51586A" d="M453.7,500.4c-1.3,0-2.6-0.5-3.5-1.5c-1.5-1.5-1.9-3.8-1-5.7l17-35.6c-6.8-11.1-10.3-23.9-10.3-37
					c0-39.4,32-71.4,71.4-71.4s71.4,32,71.4,71.4s-32,71.4-71.4,71.4c-12.5,0-24.6-3.2-35.4-9.4l-36,17.2
					C455.2,500.3,454.5,500.4,453.7,500.4z M527.3,359.3c-33.9,0-61.4,27.6-61.4,61.4c0,12.1,3.5,23.8,10.2,33.9
					c1,1.5,1.1,3.3,0.3,4.9l-12.1,25.3l25.7-12.2c1.5-0.7,3.4-0.6,4.8,0.3c9.7,6.1,21,9.3,32.5,9.3c33.9,0,61.4-27.6,61.4-61.4
					S561.2,359.3,527.3,359.3z"/>
			</g>
			<g>
				<polygon fill="#FDB626" points="527.5,436.1 512,444.3 515,427.1 502.5,414.9 519.8,412.4 527.5,396.7 535.2,412.4 552.5,414.9 
					540,427.1 542.9,444.3 				"/>
			</g>
		</g>
		<g>
			<g>
				<path fill="#51586A" d="M42.6,500.4c-1.3,0-2.6-0.5-3.5-1.5c-1.5-1.5-1.9-3.8-1-5.7l17-35.6c-6.8-11.1-10.3-23.9-10.3-37
					c0-39.4,32-71.4,71.4-71.4s71.4,32,71.4,71.4s-32,71.4-71.4,71.4c-12.5,0-24.6-3.2-35.4-9.4l-36,17.2
					C44.1,500.3,43.3,500.4,42.6,500.4z M116.2,359.3c-33.9,0-61.4,27.6-61.4,61.4c0,12.1,3.5,23.8,10.2,33.9c1,1.5,1.1,3.3,0.3,4.9
					l-12.1,25.3l25.7-12.2c1.5-0.7,3.4-0.6,4.8,0.3c9.7,6.1,21,9.3,32.5,9.3c33.9,0,61.4-27.6,61.4-61.4S150.1,359.3,116.2,359.3z"
					/>
			</g>
			<g>
				<g>
					<g>
						<path fill="#FDB626" d="M151.6,401.3H82.9c-2.8,0-5-2.2-5-5v0c0-2.8,2.2-5,5-5h68.7c2.8,0,5,2.2,5,5v0
							C156.6,399.1,154.4,401.3,151.6,401.3z"/>
					</g>
				</g>
				<g>
					<g>
						<path fill="#FDB626" d="M151.6,425H82.9c-2.8,0-5-2.2-5-5v0c0-2.8,2.2-5,5-5h68.7c2.8,0,5,2.2,5,5v0
							C156.6,422.8,154.4,425,151.6,425z"/>
					</g>
				</g>
				<g>
					<g>
						<path fill="#FDB626" d="M134,448.7h-33.4c-2.8,0-5-2.2-5-5v0c0-2.8,2.2-5,5-5H134c2.8,0,5,2.2,5,5v0
							C139,446.4,136.8,448.7,134,448.7z"/>
					</g>
				</g>
			</g>
		</g>
		<g>
			<g>
				<path fill="#51586A" d="M254.2,246c-1.3,0-2.6-0.5-3.5-1.5c-1.5-1.5-1.9-3.8-1-5.7l17-35.6c-6.8-11.1-10.3-23.9-10.3-37
					c0-39.4,32-71.4,71.4-71.4s71.4,32,71.4,71.4s-32,71.4-71.4,71.4c-12.5,0-24.6-3.2-35.4-9.4l-36,17.2
					C255.6,245.8,254.9,246,254.2,246z M327.7,104.9c-33.9,0-61.4,27.6-61.4,61.4c0,12.1,3.5,23.8,10.2,33.9c1,1.5,1.1,3.3,0.3,4.9
					l-12.1,25.3l25.7-12.2c1.5-0.7,3.4-0.6,4.8,0.3c9.7,6.1,21,9.3,32.5,9.3c33.9,0,61.4-27.6,61.4-61.4S361.6,104.9,327.7,104.9z"
					/>
			</g>
			<g>
				<g>
					<circle fill="#FDB626" cx="328" cy="166.6" r="25"/>
				</g>
				<g>
					<g>
						<g>
							<circle fill="#FFFFFF" cx="318.8" cy="156.8" r="2.7"/>
						</g>
						<g>
							<circle fill="#FFFFFF" cx="337.1" cy="156.8" r="2.7"/>
						</g>
					</g>
					<g>
						<path fill="#FFFFFF" d="M310.2,166.6L310.2,166.6c0,9.8,8,17.8,17.8,17.8s17.8-8,17.8-17.8v0H310.2z"/>
					</g>
				</g>
			</g>
		</g>
		<g>
			<g>
				<path fill="#51586A" d="M456.7,246c-1.3,0-2.6-0.5-3.5-1.5c-1.5-1.5-1.9-3.8-1-5.7l17-35.6c-6.8-11.1-10.3-23.9-10.3-37
					c0-39.4,32-71.4,71.4-71.4s71.4,32,71.4,71.4s-32,71.4-71.4,71.4c-12.5,0-24.6-3.2-35.4-9.4l-36,17.2
					C458.2,245.8,457.4,246,456.7,246z M530.3,104.9c-33.9,0-61.4,27.6-61.4,61.4c0,12.1,3.5,23.8,10.2,33.9c1,1.5,1.1,3.3,0.3,4.9
					l-12.1,25.3l25.7-12.2c1.5-0.7,3.4-0.6,4.8,0.3c9.7,6.1,21,9.3,32.5,9.3c33.9,0,61.4-27.6,61.4-61.4S564.2,104.9,530.3,104.9z"
					/>
			</g>
			<g>
				<polygon fill="#EF4136" points="555.5,182 540.1,166.6 555.5,151.2 546,141.6 530.5,157 515.1,141.6 505.5,151.2 521,166.6 
					505.5,182 515.1,191.6 530.5,176.2 546,191.6 				"/>
			</g>
		</g>
		<g>
			<g>
				<path fill="#51586A" d="M248.2,500.4c-1.3,0-2.6-0.5-3.5-1.5c-1.5-1.5-1.9-3.8-1-5.7l17-35.6c-6.8-11.1-10.3-23.9-10.3-37
					c0-39.4,32-71.4,71.4-71.4s71.4,32,71.4,71.4s-32,71.4-71.4,71.4c-12.5,0-24.6-3.2-35.4-9.4l-36,17.2
					C249.6,500.3,248.9,500.4,248.2,500.4z M321.7,359.3c-33.9,0-61.4,27.6-61.4,61.4c0,12.1,3.5,23.8,10.2,33.9
					c1,1.5,1.1,3.3,0.3,4.9l-12.1,25.3l25.7-12.2c1.5-0.7,3.4-0.6,4.8,0.3c9.7,6.1,21,9.3,32.5,9.3c33.9,0,61.4-27.6,61.4-61.4
					S355.6,359.3,321.7,359.3z"/>
			</g>
			<g>
				<g>
					<circle fill="#EF4136" cx="322" cy="421" r="25"/>
				</g>
				<g>
					<g>
						<path fill="#FFFFFF" d="M311.2,410.1c-0.7,1.3-0.3,2.9,1,3.6c1.3,0.7,2.9,0.3,3.6-1L311.2,410.1z"/>
					</g>
					<g>
						<path fill="#FFFFFF" d="M328.2,412.7c0.7,1.3,2.4,1.7,3.6,1c1.3-0.7,1.7-2.4,1-3.6L328.2,412.7z"/>
					</g>
				</g>
				<g>
					<path fill="#FFFFFF" d="M322,419.5c-7.3,0-13.3,6-13.3,13.3h26.5C335.3,425.5,329.3,419.5,322,419.5z"/>
				</g>
			</g>
		</g>
		<g>
			<g>
				<path fill="#51586A" d="M659.3,246c-1.3,0-2.6-0.5-3.5-1.5c-1.5-1.5-1.9-3.8-1-5.7l17-35.6c-6.8-11.1-10.3-23.9-10.3-37
					c0-39.4,32-71.4,71.4-71.4c39.4,0,71.4,32,71.4,71.4s-32,71.4-71.4,71.4c-12.5,0-24.6-3.2-35.4-9.4l-36,17.2
					C660.7,245.8,660,246,659.3,246z M732.8,104.9c-33.9,0-61.4,27.6-61.4,61.4c0,12.1,3.5,23.8,10.2,33.9c1,1.5,1.1,3.3,0.3,4.9
					l-12.1,25.3l25.7-12.2c1.5-0.7,3.4-0.6,4.8,0.3c9.7,6.1,21,9.3,32.5,9.3c33.9,0,61.4-27.6,61.4-61.4S766.7,104.9,732.8,104.9z"
					/>
			</g>
			<g>
				<g>
					<g>
						<path fill="#FDB626" d="M721.5,167h6.1v-0.3c0-4.4,3.6-8,8-8l0,0V147c0-1.3,1.2-2.3,2.5-2.1l0,0c4.4,0.8,7.6,4.7,7.6,9.2v4.7
							h7.1c3.3,0,5.7,2.9,5.3,6.1l-2.4,16c-0.4,2.6-2.6,4.5-5.3,4.5h-28.9V167z"/>
					</g>
				</g>
				<g>
					<rect x="708.1" y="163.6" fill="#FDB626" width="14.4" height="24.8"/>
				</g>
			</g>
		</g>
		<g>
			<g>
				<path fill="#51586A" d="M659.3,500.4c-1.3,0-2.6-0.5-3.5-1.5c-1.5-1.5-1.9-3.8-1-5.7l17-35.6c-6.8-11.1-10.3-23.9-10.3-37
					c0-39.4,32-71.4,71.4-71.4c39.4,0,71.4,32,71.4,71.4s-32,71.4-71.4,71.4c-12.5,0-24.6-3.2-35.4-9.4l-36,17.2
					C660.7,500.3,660,500.4,659.3,500.4z M732.8,359.3c-33.9,0-61.4,27.6-61.4,61.4c0,12.1,3.5,23.8,10.2,33.9
					c1,1.5,1.1,3.3,0.3,4.9l-12.1,25.3l25.7-12.2c1.5-0.7,3.4-0.6,4.8,0.3c9.7,6.1,21,9.3,32.5,9.3c33.9,0,61.4-27.6,61.4-61.4
					S766.7,359.3,732.8,359.3z"/>
			</g>
			<g>
				<g>
					<path fill="#EF4136" d="M721.5,420h6.1v0.3c0,4.4,3.6,8,8,8l0,0v11.8c0,1.3,1.2,2.3,2.5,2.1l0,0c4.4-0.8,7.6-4.7,7.6-9.2v-4.7
						h7.1c3.3,0,5.7-2.9,5.3-6.1l-2.4-16c-0.4-2.6-2.6-4.5-5.3-4.5h-28.9V420z"/>
				</g>
				<g>
					<rect x="708.1" y="398.7" fill="#EF4136" width="14.4" height="24.8"/>
				</g>
			</g>
		</g>
	</g>
</g>
</svg>
